<svg xmlns="http://www.w3.org/2000/svg" width="3840" height="2160" viewBox="0 0 3840 2160">
  <defs><linearGradient id="bg" x1="0" y1="0" x2="1" y2="1"><stop stop-color="#151820"/><stop offset="1" stop-color="#050607"/></linearGradient><pattern id="grid" width="80" height="80" patternUnits="userSpaceOnUse"><path d="M80 0H0V80" fill="none" stroke="#303640" stroke-opacity=".18"/></pattern></defs>
  <rect width="3840" height="2160" fill="url(#bg)"/><rect width="3840" height="2160" fill="url(#grid)"/>
  <rect x="0" y="0" width="154" height="2160" fill="#0b0c0f"/><line x1="153" y1="0" x2="153" y2="2160" stroke="#303640" stroke-width="2"/>
  <g font-family="IBM Plex Mono, monospace" text-anchor="middle"><text x="77" y="82" font-size="26" fill="#65d6a6">QS</text><g font-size="26"><rect x="38" y="148" width="78" height="70" rx="14" fill="#65d6a6"/><text x="77" y="191" fill="#090a0c">01</text><text x="77" y="288" fill="#858d9b">02</text><text x="77" y="378" fill="#858d9b">03</text><text x="77" y="468" fill="#858d9b">04</text><text x="77" y="558" fill="#858d9b">05</text></g><line x1="37" y1="635" x2="117" y2="635" stroke="#303640"/><g font-size="18" fill="#858d9b"><text x="77" y="704">APPS</text><text x="77" y="794">HOST</text><text x="77" y="884">EVENT</text><text x="77" y="974">FILES</text></g><circle cx="77" cy="1840" r="10" fill="#65d6a6"/><text x="77" y="1890" font-size="16" fill="#858d9b">VPN</text><text x="77" y="1980" font-size="18" fill="#f0b95a">78%</text><text x="77" y="2060" font-size="24" fill="#e8eaf0">14:32</text></g>
  <rect x="195" y="52" width="3550" height="100" rx="12" fill="#111318" stroke="#303640"/>
  <g font-family="IBM Plex Sans, sans-serif"><text x="245" y="95" font-size="20" fill="#858d9b" letter-spacing="4">WORKSPACE 01 / DEVELOPMENT</text><text x="245" y="130" font-size="28" fill="#e8eaf0">NixOS Fleet Operations</text><text x="3500" y="104" text-anchor="end" font-size="24" fill="#65d6a6">ALL NOMINAL</text><circle cx="3550" cy="96" r="8" fill="#65d6a6"/><text x="3680" y="104" text-anchor="end" font-size="20" fill="#858d9b">PC · 14:32:08</text></g>
  <rect x="195" y="190" width="1010" height="1900" rx="14" fill="#111318" stroke="#303640"/>
  <g font-family="IBM Plex Sans, sans-serif"><text x="245" y="255" font-size="22" fill="#858d9b" letter-spacing="4">REMOTE HOSTS</text>
    <g fill="#171a20"><rect x="230" y="295" width="940" height="150" rx="10"/><rect x="230" y="465" width="940" height="150" rx="10"/><rect x="230" y="635" width="940" height="150" rx="10"/><rect x="230" y="805" width="940" height="150" rx="10"/><rect x="230" y="975" width="940" height="150" rx="10"/></g>
    <g font-family="IBM Plex Mono, monospace"><circle cx="275" cy="350" r="9" fill="#65d6a6"/><text x="310" y="360" font-size="30" fill="#e8eaf0">alpha</text><text x="310" y="402" font-size="20" fill="#858d9b">SERVER · 12ms · gen 184</text><text x="1080" y="370" text-anchor="end" font-size="22" fill="#65d6a6">ONLINE</text><circle cx="275" cy="520" r="9" fill="#65d6a6"/><text x="310" y="530" font-size="30" fill="#e8eaf0">t470</text><text x="310" y="572" font-size="20" fill="#858d9b">AUTOMATION · 18ms · gen 96</text><text x="1080" y="540" text-anchor="end" font-size="22" fill="#65d6a6">ONLINE</text><circle cx="275" cy="690" r="9" fill="#68a8e8"/><text x="310" y="700" font-size="30" fill="#e8eaf0">legion</text><text x="310" y="742" font-size="20" fill="#858d9b">MOBILE · 24ms · gen 61</text><text x="1080" y="710" text-anchor="end" font-size="22" fill="#68a8e8">IDLE</text><circle cx="275" cy="860" r="9" fill="#f0b95a"/><text x="310" y="870" font-size="30" fill="#e8eaf0">mac</text><text x="310" y="912" font-size="20" fill="#858d9b">OFFICE · 88ms · gen 77</text><text x="1080" y="880" text-anchor="end" font-size="22" fill="#f0b95a">UPDATE</text><circle cx="275" cy="1030" r="9" fill="#ed6a73"/><text x="310" y="1040" font-size="30" fill="#e8eaf0">zombie</text><text x="310" y="1082" font-size="20" fill="#858d9b">HEADLESS · last seen 4h</text><text x="1080" y="1050" text-anchor="end" font-size="22" fill="#ed6a73">OFFLINE</text></g>
    <text x="245" y="1210" font-size="22" fill="#858d9b" letter-spacing="4">ACTIVE SESSIONS</text><rect x="230" y="1250" width="940" height="190" rx="10" fill="#171a20"/><rect x="260" y="1280" width="110" height="110" rx="10" fill="#20252d"/><text x="315" y="1348" text-anchor="middle" font-size="26" fill="#68a8e8">CAD</text><text x="405" y="1315" font-size="27" fill="#e8eaf0">Bambu Studio</text><text x="405" y="1355" font-size="20" fill="#858d9b">alpha / Waypipe · 42 min</text><text x="405" y="1395" font-size="20" fill="#65d6a6">Stable · 26ms</text><text x="1085" y="1350" text-anchor="end" font-size="20" fill="#ed6a73">DISCONNECT</text>
    <text x="245" y="1530" font-size="22" fill="#858d9b" letter-spacing="4">HOST ACTIONS</text><g fill="#171a20"><rect x="230" y="1570" width="290" height="88" rx="10"/><rect x="540" y="1570" width="290" height="88" rx="10"/><rect x="850" y="1570" width="320" height="88" rx="10"/></g><g font-size="21" fill="#e8eaf0" text-anchor="middle"><text x="375" y="1625">OPEN SHELL</text><text x="685" y="1625">SYNC</text><text x="1010" y="1625">DEPLOY</text></g>
  </g>
  <rect x="1240" y="190" width="1580" height="1160" rx="14" fill="#111318" stroke="#303640"/>
  <g font-family="IBM Plex Sans, sans-serif"><text x="1290" y="255" font-size="22" fill="#858d9b" letter-spacing="4">COMMAND</text><rect x="1280" y="295" width="1500" height="105" rx="10" fill="#171a20" stroke="#65d6a6"/><text x="1330" y="362" font-size="34" fill="#e8eaf0">deploy alpha</text><text x="2715" y="360" text-anchor="end" font-size="21" fill="#858d9b">CTRL K</text>
    <text x="1290" y="475" font-size="19" fill="#858d9b" letter-spacing="3">MATCHES</text><rect x="1280" y="510" width="1500" height="145" rx="10" fill="#1a2023" stroke="#65d6a6"/><rect x="1310" y="540" width="72" height="72" rx="8" fill="#65d6a6"/><text x="1346" y="588" text-anchor="middle" font-size="25" fill="#090a0c">RUN</text><text x="1420" y="565" font-size="28" fill="#e8eaf0">Deploy alpha</text><text x="1420" y="605" font-size="20" fill="#858d9b">Run checks, promote revision, switch generation</text><text x="2700" y="585" text-anchor="end" font-size="19" fill="#f0b95a">PRIVILEGED</text>
    <g fill="#171a20"><rect x="1280" y="675" width="1500" height="110" rx="10"/><rect x="1280" y="805" width="1500" height="110" rx="10"/><rect x="1280" y="935" width="1500" height="110" rx="10"/></g><g font-size="25" fill="#e8eaf0"><text x="1330" y="743">Open alpha terminal</text><text x="1330" y="873">Show alpha deployment history</text><text x="1330" y="1003">Compare alpha generations</text></g><g text-anchor="end" font-size="19" fill="#858d9b"><text x="2700" y="743">SSH</text><text x="2700" y="873">EVENTS</text><text x="2700" y="1003">NVD</text></g>
    <line x1="1280" y1="1120" x2="2780" y2="1120" stroke="#303640"/><text x="1290" y="1180" font-family="IBM Plex Mono, monospace" font-size="20" fill="#858d9b">↑↓ SELECT   ENTER RUN   TAB SCOPE   ESC CLOSE</text>
  </g>
  <rect x="2855" y="190" width="890" height="1160" rx="14" fill="#111318" stroke="#303640"/>
  <g font-family="IBM Plex Sans, sans-serif"><text x="2910" y="255" font-size="22" fill="#858d9b" letter-spacing="4">TELEMETRY</text><g font-family="IBM Plex Mono, monospace"><text x="2910" y="335" font-size="18" fill="#858d9b">CPU</text><text x="3670" y="335" text-anchor="end" font-size="22" fill="#65d6a6">18%</text><rect x="2910" y="360" width="760" height="12" fill="#20252d"/><rect x="2910" y="360" width="137" height="12" fill="#65d6a6"/><text x="2910" y="435" font-size="18" fill="#858d9b">MEMORY</text><text x="3670" y="435" text-anchor="end" font-size="22" fill="#68a8e8">9.4 / 32G</text><rect x="2910" y="460" width="760" height="12" fill="#20252d"/><rect x="2910" y="460" width="223" height="12" fill="#68a8e8"/><text x="2910" y="535" font-size="18" fill="#858d9b">BATTERY</text><text x="3670" y="535" text-anchor="end" font-size="22" fill="#f0b95a">78% · 4H12</text><rect x="2910" y="560" width="760" height="12" fill="#20252d"/><rect x="2910" y="560" width="593" height="12" fill="#f0b95a"/></g><text x="2910" y="665" font-size="19" fill="#858d9b" letter-spacing="3">PRIVACY</text><g fill="#171a20"><rect x="2900" y="700" width="365" height="95" rx="10"/><rect x="3290" y="700" width="390" height="95" rx="10"/></g><text x="2940" y="758" font-size="22" fill="#65d6a6">MIC CLEAR</text><text x="3330" y="758" font-size="22" fill="#65d6a6">CAM CLEAR</text><text x="2910" y="880" font-size="19" fill="#858d9b" letter-spacing="3">AI LIMITS</text><text x="2910" y="940" font-size="23" fill="#e8eaf0">OpenAI</text><text x="3670" y="940" text-anchor="end" font-size="22" fill="#65d6a6">64%</text><text x="2910" y="995" font-size="23" fill="#e8eaf0">Anthropic</text><text x="3670" y="995" text-anchor="end" font-size="22" fill="#f0b95a">31%</text><text x="2910" y="1080" font-size="19" fill="#858d9b" letter-spacing="3">NETWORK</text><text x="2910" y="1140" font-size="23" fill="#e8eaf0">Tailnet</text><text x="3670" y="1140" text-anchor="end" font-size="22" fill="#65d6a6">7 / 8</text><text x="2910" y="1200" font-size="23" fill="#e8eaf0">Down / Up</text><text x="3670" y="1200" text-anchor="end" font-size="22" fill="#68a8e8">18.2 / 2.1 MB</text></g>
  <rect x="1240" y="1390" width="2505" height="700" rx="14" fill="#111318" stroke="#303640"/><g font-family="IBM Plex Sans, sans-serif"><text x="1290" y="1455" font-size="22" fill="#858d9b" letter-spacing="4">EVENT STREAM</text><g font-family="IBM Plex Mono, monospace" font-size="20"><text x="1300" y="1535" fill="#858d9b">14:31:52</text><text x="1490" y="1535" fill="#65d6a6">OK</text><text x="1570" y="1535" fill="#e8eaf0">alpha backup completed · 82.4 GiB · 03:12</text><text x="1300" y="1605" fill="#858d9b">14:28:17</text><text x="1490" y="1605" fill="#68a8e8">INFO</text><text x="1570" y="1605" fill="#e8eaf0">Waypipe session started · Bambu Studio · alpha</text><text x="1300" y="1675" fill="#858d9b">14:18:03</text><text x="1490" y="1675" fill="#f0b95a">WARN</text><text x="1570" y="1675" fill="#e8eaf0">mac generation differs from main by 4 commits</text><text x="1300" y="1745" fill="#858d9b">13:59:44</text><text x="1490" y="1745" fill="#65d6a6">OK</text><text x="1570" y="1745" fill="#e8eaf0">flake checks passed · 8 hosts · 01:48</text><text x="1300" y="1815" fill="#858d9b">13:42:10</text><text x="1490" y="1815" fill="#ed6a73">FAIL</text><text x="1570" y="1815" fill="#e8eaf0">zombie health probe unavailable · retry in 15m</text></g><line x1="1280" y1="1900" x2="3700" y2="1900" stroke="#303640"/><text x="1290" y="1970" font-size="20" fill="#858d9b">Obsidian Operations Rail · dense fleet control without center-screen clutter</text></g>
</svg>
